<svg width="38" height="44" viewBox="0 0 38 44" fill="none" xmlns="http://www.w3.org/2000/svg">
<g clip-path="url(#clip0_1744_128038)">
<rect width="35.0769" height="40.9231" rx="2" fill="#F3F5FB"/>
<path d="M36.3062 4.25621C36.8276 4.82933 36.5273 5.75214 35.7684 5.90859L29.1252 7.27815C28.4386 7.41972 27.8232 6.82907 27.9365 6.13718L29.1396 -1.21155C29.2748 -2.037 30.3032 -2.34164 30.8661 -1.72296L36.3062 4.25621Z" fill="#AEE6FA"/>
<rect width="7.59173" height="17.228" transform="translate(26.1719 -2.79297) rotate(-45)" fill="white"/>
<rect x="10" y="17" width="16" height="1" rx="0.5" fill="#0D99C9"/>
<rect x="10" y="20" width="16" height="1" rx="0.5" fill="#0D99C9"/>
<rect x="10" y="23" width="16" height="1" rx="0.5" fill="#0D99C9"/>
</g>
<rect x="26.3086" y="32.1523" width="11.6923" height="11.6923" rx="5.84615" fill="#0D99C9"/>
<path d="M31.6673 39.332V36.6154L30.8007 37.482L30.334 36.9987L32.0007 35.332L33.6673 36.9987L33.2007 37.482L32.334 36.6154V39.332H31.6673ZM30.0007 40.6654C29.8173 40.6654 29.6603 40.6 29.5297 40.4694C29.399 40.3387 29.3338 40.1818 29.334 39.9987V38.9987H30.0007V39.9987H34.0007V38.9987H34.6673V39.9987C34.6673 40.182 34.602 40.339 34.4713 40.4697C34.3407 40.6004 34.1838 40.6656 34.0007 40.6654H30.0007Z" fill="white"/>
<defs>
<clipPath id="clip0_1744_128038">
<rect width="35.0769" height="40.9231" rx="2" fill="white"/>
</clipPath>
</defs>
</svg>
